<svg width="756" height="126" viewBox="0 0 756 126" fill="none" xmlns="http://www.w3.org/2000/svg">
<path fill-rule="evenodd" clip-rule="evenodd" d="M722.371 51.3005C722.354 64.0539 722.371 76.8142 722.277 89.5607C722.26 91.4368 722.779 91.6407 724.437 91.0537C726.909 90.1767 729.423 89.3741 731.973 88.7139C733.925 88.2154 734.614 87.3087 734.61 85.243C734.581 75.7879 734.552 66.3396 734.705 56.8848C734.927 43.3256 734.812 29.7592 734.901 16.1999C734.903 15.0892 734.475 14.7025 733.472 14.4302C730.44 13.5998 727.401 12.7761 724.419 11.7899C722.798 11.2526 722.377 11.5229 722.389 13.223C722.434 25.9155 722.389 38.608 722.371 51.3005ZM631.539 61.5721C634.377 60.2824 637.095 59.0399 639.821 57.7974C640.172 57.6421 640.509 57.4665 640.86 57.3112C641.268 57.1154 641.752 56.8654 642.089 57.2994C642.509 57.8553 641.835 58.044 641.547 58.2671C638.736 60.4577 635.939 62.6618 633.058 64.7507C632.13 65.4199 631.757 66.0764 631.77 67.1939C631.807 70.8919 631.198 74.501 629.558 77.8852C626.496 84.2204 621.374 87.3899 614.066 87.2512C606.611 87.1123 601.597 83.509 599.036 76.9696C596.294 69.9898 596.353 62.8242 599.115 55.8316C601.721 49.2587 607.328 45.6768 614.488 45.6799C621.592 45.6828 627.042 49.2122 629.841 55.63C630.639 57.4665 631.107 59.3974 631.539 61.5721ZM700.743 65.9537C700.75 71.1079 700.063 75.4416 697.755 79.4005C694.588 84.8348 689.706 87.4018 683.276 87.3659C676.733 87.323 671.697 84.6476 668.903 78.9681C664.85 70.6997 664.862 62.1862 669.057 53.9697C672.063 48.0949 677.422 45.5895 684.154 45.8155C690.858 46.0414 695.592 49.2109 698.42 55.0191C700.219 58.6857 700.811 62.608 700.743 65.9537ZM480.417 66.5327C480.315 64.6565 480.521 62.7468 480.797 60.8304C481.988 52.6571 487.275 47.0902 495.019 45.9223C500.419 45.117 505.704 45.6729 510.791 47.5492C512.328 48.1134 512.707 47.7685 513.011 46.3805C513.435 44.4373 513.943 42.4941 514.662 40.6393C515.253 39.123 514.756 38.5466 513.296 38.1111C507.065 36.2807 500.727 35.3847 494.225 36.1276C484.255 37.2585 476.653 41.8876 471.917 50.5369C468.173 57.386 467.356 64.7335 468.426 72.2936C470.011 83.5321 475.932 91.6 487.314 95.3543C493.341 97.347 499.582 97.4166 505.852 96.5379C508.843 96.1221 511.841 95.7063 514.686 94.6265C515.416 94.3498 516.119 94.1476 515.902 93.084C515.4 90.706 514.954 88.3213 514.585 85.9232C514.446 84.9883 514.166 84.8457 513.26 85.1763C508.68 86.87 503.913 87.3918 499.027 87.3106C489.34 87.1483 483.162 82.3649 481.04 73.2591C480.531 71.064 480.309 68.8421 480.417 66.5327ZM584.875 66.8992C584.795 69.168 585.051 71.952 585.735 74.6824C588.353 85.1433 594.527 92.7171 605.481 95.6647C616.744 98.6941 627.171 96.8865 635.677 88.6421C645.005 79.5996 646.959 62.1892 640.166 50.307C634.949 41.17 626.685 36.5463 616.086 36.0916C605.107 35.6295 595.997 39.4166 589.863 48.5989C586.269 53.9784 584.835 59.9908 584.875 66.8992ZM653.792 66.5061C653.751 70.5292 654.3 74.4514 655.678 78.2529C660.175 90.6399 670.969 97.6172 685.171 96.9526C696.65 96.413 705.13 91.1283 710.002 80.9824C713.536 73.6048 713.884 65.8571 712.041 57.9981C710.541 51.6024 707.326 46.1594 701.94 42.095C694.815 36.7076 686.632 35.2267 677.841 36.6098C671.613 37.5833 666.218 40.2309 661.923 44.756C656.088 50.9113 653.859 58.3381 653.792 66.5061ZM536.196 38.3928L536.199 36.1984C536.208 29.4796 536.175 22.754 536.268 16.0354C536.284 14.7215 535.857 14.1858 534.601 13.8455C531.99 13.1578 529.429 12.3212 526.847 11.5523C524.468 10.8311 524.461 10.8311 524.457 13.2558L524.352 89.8104C524.352 90.0609 524.38 90.3116 524.351 90.5554C524.188 91.8962 524.714 92.1814 525.999 91.7023C528.76 90.6766 531.541 89.6712 534.35 88.7878C535.72 88.3495 536.177 87.7202 536.172 86.2775C536.118 74.1403 536.184 62.0101 536.152 49.8729C536.146 48.6131 536.435 47.9972 537.804 47.7078C542.046 46.8196 546.28 46.094 550.639 46.3912C557.553 46.868 561.031 49.7174 562.651 56.2284C563.279 58.7759 563.57 61.3772 563.581 63.9847C563.623 74.3813 563.629 84.7778 563.587 95.1674C563.578 96.4069 563.802 96.9287 565.241 96.8765C567.951 96.7921 570.661 96.8297 573.364 96.9824C574.971 97.0727 575.435 96.5857 575.423 95.0211C575.359 85.2477 575.408 75.4811 575.428 65.7078C575.433 62.5313 575.36 59.3682 574.901 56.2182C573.691 47.9264 570.049 41.3178 561.517 38.0618C557.42 36.4984 553.138 36.1607 548.793 36.1954C544.517 36.2369 540.388 37.132 536.196 38.3928ZM427.903 96.2959C431.335 96.3412 434.74 96.0953 438.111 95.4904C443.995 94.4283 449.459 92.4445 453.586 88.0884C459.274 82.0954 459.733 74.8828 458.03 67.4167C456.446 60.4452 451.461 56.0562 445.161 52.8846C440.875 50.7182 436.392 48.9849 431.901 47.272C428.119 45.8377 424.352 44.3696 421.091 41.9607C417.598 39.3889 416.164 35.9395 416.696 31.802C417.214 27.6983 419.815 25.1146 423.692 23.6096C425.743 22.8132 427.871 22.3826 430.075 22.257C437.159 21.8535 443.953 22.9533 450.316 26.0776C451.368 26.5938 451.747 26.3505 452.114 25.396C452.959 23.1824 453.777 20.9484 454.812 18.8164C455.523 17.3544 455.292 16.5142 453.734 15.977C453.131 15.7662 452.57 15.4471 451.966 15.2228C443.308 11.9735 434.345 11.0468 425.182 12.2805C418.968 13.1185 413.321 15.3323 409.109 20.0405C400.032 30.1943 402.854 45.7217 414.982 52.7213C418.988 55.0296 423.366 56.5256 427.709 58.0826C431.997 59.6192 436.347 61.0204 440.099 63.6602C444.952 67.0669 446.904 71.8784 445.584 77.1866C444.243 82.5557 439.986 84.5478 434.98 85.3537C425.29 86.9117 415.976 85.5782 407.179 81.3331C405.776 80.6538 405.34 80.9445 404.917 82.2579C404.212 84.4513 403.423 86.6244 402.486 88.7362C401.895 90.0697 402.189 90.6932 403.536 91.2911C411.274 94.7491 419.43 96.2165 427.903 96.2959ZM745.345 1.02276C747.254 1.70944 749.204 2.32168 750.803 3.63104C753.762 6.05303 755.401 9.09631 755.395 12.8959C755.345 49.693 755.28 86.4901 755.286 123.287C755.284 124.953 754.848 125.325 753.156 125.323C636.028 125.122 518.906 124.961 401.778 124.807C397.11 124.8 392.983 123.704 390.04 119.887C388.281 117.602 387.548 115.041 387.552 112.203C387.616 75.7855 387.666 39.3609 387.709 2.93627C387.71 2.13707 387.613 1.33096 387.558 0.531685L745.345 1.02276Z" fill="#DF177C"/>
<mask id="mask0_7_55" style="mask-type:luminance" maskUnits="userSpaceOnUse" x="0" y="10" width="373" height="90">
<path fill-rule="evenodd" clip-rule="evenodd" d="M0.156494 10.2885L372.7 10.7998L372.578 99.533L0.0347059 99.0217L0.156494 10.2885Z" fill="white"/>
</mask>
<g mask="url(#mask0_7_55)">
<path fill-rule="evenodd" clip-rule="evenodd" d="M19.368 69.9629C25.4731 69.9713 31.5435 69.9796 37.6138 69.9949C38.8195 69.9966 38.758 69.1122 38.9055 68.2982C40.0992 61.8147 41.2092 55.324 42.5562 48.8758C42.8719 47.3742 42.6562 47.1213 41.2553 47.1334C36.1397 47.1825 31.0171 47.2737 25.9158 47.0702C23.9087 46.9973 23.4337 47.7827 23.1386 49.5018C21.9584 56.2942 20.6528 63.0584 19.368 69.9629ZM234.644 18.0743C234.649 14.0738 236.471 12.1953 240.332 12.2006C243.956 12.2056 245.633 14.2012 245.836 18.1037C246.047 22.0976 243.096 24.192 240.134 24.1459C236.649 24.099 234.242 21.2953 234.644 18.0743ZM236.503 67.1311C236.517 57.1294 236.572 47.1348 236.502 37.133C236.491 35.3993 237.021 35.1895 238.4 35.816C240.266 36.6609 242.992 36.5312 243.958 38.0907C244.862 39.5308 244.218 41.9584 244.215 43.9517C244.205 61.632 244.153 79.2981 244.191 96.9714C244.196 98.5857 243.812 99.1116 242.202 98.9479C240.369 98.7769 237.873 99.5456 236.843 98.6037C235.639 97.5071 236.493 94.9675 236.488 93.0584C236.451 84.4112 236.491 75.7712 236.503 67.1311ZM234.654 11.1608C232.246 13.5649 231.685 16.2243 231.953 18.962C226.461 18.5684 221.172 18.2383 216.81 22.2119C214.766 24.0691 213.961 26.6017 213.504 29.2331C213.167 31.1769 212.243 33.7094 213.343 34.9743C214.47 36.2602 217.078 35.2461 219.036 35.4032C220.73 35.5319 222.996 34.6576 223.97 35.789C224.805 36.7587 224.224 38.9759 224.228 40.6463C224.245 43.5381 224.231 43.538 221.297 43.534C219.248 43.5312 217.192 43.6337 215.15 43.4835C213.526 43.3689 213.024 43.7613 213.029 45.5371C213.089 62.5015 212.996 79.4657 213.056 96.4371C213.068 98.4304 212.607 99.1668 210.586 98.9113C209.136 98.7339 207.645 98.809 206.174 98.8912C205.115 98.96 204.913 98.5385 204.914 97.5629C204.972 76.212 204.896 54.8608 205.1 33.5101C205.141 28.6953 205.998 23.8956 208.464 19.5123C211.001 15.0027 214.893 12.6217 219.683 11.4C223.036 10.5483 226.465 10.5319 229.88 10.6559C231.316 10.707 232.744 10.9476 234.654 11.1608ZM257.645 68.7039C257.658 59.2216 257.685 49.7393 257.663 40.2569C257.658 38.9795 258 38.4957 259.325 38.1045C267.497 35.7153 275.847 34.9406 284.266 35.5488C292.433 36.1425 298.722 39.8781 301.86 48.8033C303.186 52.5812 303.807 56.4985 303.795 60.5202C303.758 72.5784 303.692 84.6435 303.794 96.7089C303.812 98.7584 303.198 99.2559 301.359 99.0288C300.223 98.8868 299.045 98.8993 297.909 99.024C296.431 99.1764 295.992 98.7126 296.008 97.1545C296.1 86.1281 296.143 75.0947 296.061 64.0611C296.024 60.1516 295.577 56.2766 294.23 52.5198C292.001 46.3542 287.962 43.9693 282.059 43.6384C276.986 43.3507 271.94 43.4771 266.927 44.6494C265.365 45.0122 265.357 45.707 265.356 46.8651C265.34 63.4434 265.317 80.0217 265.294 96.5999C265.294 96.986 265.252 97.379 265.3 97.7651C265.41 98.6776 265.061 99.0983 264.134 98.9566C264.065 98.9425 264.002 98.9565 263.939 98.9564C261.897 98.9044 259.22 99.6377 258.001 98.6113C256.728 97.5427 257.637 94.7435 257.626 92.708C257.595 84.7066 257.634 76.7123 257.645 68.7039ZM149.872 60.7862C150.074 60.8146 150.199 60.8499 150.325 60.85C160.061 60.8634 169.798 60.8768 179.534 60.8971C184.092 60.9034 184.169 60.8895 183.443 56.4105C182.876 52.9284 181.515 49.6418 178.911 47.2939C172.438 41.4525 161.704 42.0835 155.444 48.2865C152.024 51.6788 150.199 55.9086 149.872 60.7862ZM170.776 69.013C164.246 69.0041 157.708 69.0302 151.178 68.9581C149.931 68.9423 149.505 69.2646 149.601 70.5491C149.997 76.0173 151.412 81.1359 155.205 85.219C158.135 88.3674 162.099 89.6222 166.238 90.2947C170.523 90.9814 174.817 90.868 179.034 89.8981C181.147 89.4097 183.19 88.6124 185.233 87.8782C186.237 87.5146 186.809 87.3048 186.933 88.793C187.07 90.5338 187.52 92.2611 187.957 93.9532C188.207 94.9221 187.85 95.4199 187.042 95.6996C183.457 96.951 179.887 98.1463 176.026 98.5271C172.52 98.8732 169.07 98.8334 165.62 98.4005C160.136 97.7192 155.093 95.9505 150.847 92.1616C145.688 87.5502 143.271 81.6792 142.263 74.9609C141.144 67.5054 141.279 60.1921 143.875 53.0646C147.023 44.4288 152.628 38.0916 161.699 35.9282C168.873 34.2185 176.064 34.8951 182.268 39.4237C187.406 43.1788 189.992 48.6078 191.203 54.8421C192.005 58.9703 191.826 63.1041 191.938 67.2523C191.978 68.6421 191.692 69.1049 190.186 69.0818C183.719 68.9746 177.251 69.0219 170.776 69.013ZM347.214 61.1269L360.463 61.1451C364.485 61.1506 364.673 61.1228 364.1 57.1775C363.354 52.0879 361.004 47.8804 356.31 45.3612C353.322 43.7569 350.117 43.4998 346.771 43.6637C342.805 43.8547 339.506 45.4786 336.659 48.0225C333.268 51.0359 331.409 54.9006 330.587 59.4336C330.264 61.23 330.801 61.1254 332.041 61.1201C337.101 61.092 342.161 61.12 347.214 61.1269ZM330.042 69.2316C330.323 72.6361 330.772 75.7952 331.82 78.8498C333.972 85.1555 338.442 88.8184 344.768 90.1186C351.994 91.6095 359.117 91.142 365.951 88.0912C366.9 87.6713 367.366 87.9176 367.56 88.9146C367.934 90.8242 367.973 92.7965 368.654 94.6363C368.938 95.4018 368.359 95.6466 367.836 95.8635C364.538 97.2136 361.156 98.2898 357.608 98.685C355.085 98.9623 352.555 99.2256 350.004 99.0677C343.871 98.6802 337.963 97.4017 332.894 93.7029C327.644 89.8775 324.801 84.4551 323.339 78.1643C322.231 73.3971 322 68.5608 322.272 63.7323C322.65 57.086 324.485 50.7857 328.521 45.45C333.185 39.2729 339.358 35.7018 347.296 35.5442C351.506 35.4588 355.625 35.7311 359.434 37.6595C366.03 41.0025 369.821 46.5104 371.47 53.6858C372.564 58.453 372.627 63.275 372.621 68.1249C372.619 69.7182 371.609 69.2746 370.821 69.2735C357.948 69.2699 345.076 69.2522 332.21 69.2346L330.042 69.2316ZM120.4 69.3783C120.408 63.251 120.298 57.1236 120.487 51.0106C120.56 48.8489 119.704 47.816 117.984 46.9433C112.768 44.3112 107.354 42.8088 101.45 43.3481C94.947 43.9498 89.7091 46.7361 86.6554 52.6205C83.0287 59.6132 82.7187 67.1157 84.4715 74.7404C85.6354 79.8376 88.3757 83.9051 92.6441 86.8027C96.418 89.3627 100.738 90.3793 105.233 90.582C109.749 90.7917 114.252 89.8925 118.775 90.2566C120.217 90.3709 120.413 89.7886 120.401 88.5182C120.347 82.1382 120.391 75.7583 120.4 69.3783ZM120.442 39.8158L120.457 28.8034C120.464 23.7078 120.499 18.6122 120.464 13.5165C120.452 12.3023 120.654 11.6779 122.111 11.5886C123.833 11.4787 125.527 10.9476 127.228 10.5639C128.211 10.3336 128.685 10.5659 128.565 11.6817C128.494 12.3765 128.549 13.0925 128.548 13.8014C128.51 41.6026 128.458 69.3898 128.475 97.177C128.473 98.7562 128.159 99.3173 126.514 99.1747C118.995 98.5257 111.446 99.0066 103.934 98.6734C95.4591 98.2968 88.0129 95.2545 82.4395 88.5299C78.9117 84.2857 77.0857 79.2578 76.1661 73.8381C75.5094 69.9347 75.5984 65.9973 75.8965 62.1304C76.4926 54.3194 79.1229 47.206 84.9779 41.7604C89.5487 37.5204 95.0925 35.3732 101.337 35.2484C105.756 35.1492 110.196 35.043 114.396 36.8035C116.34 37.6203 118.374 38.2337 120.442 39.8158ZM0.113954 38.9701C5.36899 38.9773 10.6241 38.9634 15.879 39.0057C16.9105 39.0142 17.2801 38.8954 17.4909 37.6323C18.503 31.4221 19.759 25.2613 20.8896 19.0794C21.023 18.3777 21.441 18.4905 21.8592 18.4911C23.9152 18.4799 25.9642 18.5318 28.0064 18.4715C28.9682 18.4447 29.1 18.9222 28.9526 19.6519C27.8158 25.3145 26.658 30.977 25.5282 36.6396C25.3808 37.3764 25.6097 38.1698 25.2043 39.0045C31.2887 39.0129 37.3035 39.0071 43.3251 39.0364C44.2869 39.0447 44.5732 38.6521 44.7487 37.6907C45.8443 31.6351 47.0653 25.6006 48.1539 19.5379C48.3014 18.6959 48.5247 18.4856 49.3053 18.5077C51.2916 18.5456 53.2779 18.5342 55.2642 18.5229C55.8985 18.5168 56.4003 18.5385 56.2248 19.4437C55.0244 25.6747 53.8519 31.9128 52.6586 38.1438C52.6095 38.3824 52.3443 38.5715 52.6225 39.0421C55.2779 39.0458 58.0865 39.0918 60.8814 39.0254C61.9826 39.0059 62.5191 39.1821 62.4267 40.4734C62.2989 42.2068 62.3174 43.9616 62.4126 45.6953C62.4737 46.8675 62.1595 47.2601 60.9399 47.2093C58.1243 47.1142 55.2945 47.2788 52.4859 47.1205C51.1479 47.0485 50.6661 47.6936 50.4974 48.7321C49.4147 55.5599 48.0882 62.3452 46.6432 69.1093C46.3977 70.239 47.2343 70.0015 47.8198 70.0023C52.106 70.0152 56.3992 70.0772 60.6926 69.9919C62.0308 69.9656 62.4903 70.2961 62.3839 71.6787C62.2491 73.349 62.2608 75.0405 62.37 76.7111C62.4589 77.9606 61.9986 78.1986 60.8556 78.183C56.1164 78.1133 51.37 78.2051 46.6378 78.0933C45.3066 78.0634 44.8737 78.6524 44.6771 79.733C43.6307 85.5501 42.5912 91.3672 41.5587 97.1914C41.4041 98.0685 41.1384 98.6998 40.0233 98.6632C37.7792 98.5899 35.5489 98.636 33.1375 98.6327C34.4288 92.121 35.6851 85.7287 36.9414 79.3363C37.1169 78.4452 36.8316 78.0939 35.8559 78.0995C30.2175 78.1339 24.579 78.1683 18.9408 78.0483C17.533 78.0182 17.5526 79.0219 17.4192 79.7166C16.31 85.5266 15.2914 91.3508 14.2659 97.1679C14.0903 98.1784 13.6575 98.6972 12.5215 98.6254C10.8559 98.5319 9.17631 98.4945 7.52434 98.6326C6.13027 98.75 6.01979 97.9918 6.20234 97.0165C7.13616 92.0134 8.06301 87.0103 9.09438 82.0214C9.29784 81.039 9.2365 80.0283 9.62815 79.0462C9.99182 78.1342 9.22525 78.07 8.52132 78.0761C5.70561 78.0862 2.88295 78.0753 0.0602863 78.0715L0.0714514 69.9367C3.39592 69.9413 6.72738 69.9318 10.0518 69.9645C11.0345 69.9728 11.453 69.7137 11.6497 68.605C12.8366 62.002 14.1281 55.4202 15.4265 48.8384C15.6862 47.4912 15.3174 47.0625 13.9165 47.0887C9.31646 47.1666 4.70967 47.1041 0.102798 47.0978L0.113954 38.9701Z" fill="#3C526B"/>
</g>
</svg>
